<svg xmlns="http://www.w3.org/2000/svg" viewBox="0 0 420 300">
  <defs>
    <linearGradient id="bg" x1="0" y1="0" x2="1" y2="1">
      <stop offset="0%" stop-color="#0a3f77"/>
      <stop offset="100%" stop-color="#082b57"/>
    </linearGradient>
    <linearGradient id="water" x1="0" y1="0" x2="1" y2="0">
      <stop offset="0%" stop-color="#68ebff"/>
      <stop offset="100%" stop-color="#bff8ff"/>
    </linearGradient>
  </defs>
  <rect width="420" height="300" rx="32" fill="url(#bg)"/>
  <circle cx="112" cy="170" r="84" fill="#0f568e"/>
  <path d="M70 192c56-16 92-10 150 20" fill="none" stroke="#d2fbff" stroke-width="18" stroke-linecap="round"/>
  <path d="M220 208c34-44 66-90 98-138 18-28 32-18 22 4-6 14-8 28-2 36 14 16 6 28-16 24 2 18-10 28-24 18 0 16-14 18-22 8" fill="none" stroke="url(#water)" stroke-width="26" stroke-linecap="round" stroke-linejoin="round"/>
  <circle cx="142" cy="126" r="10" fill="#fff"/>
  <circle cx="180" cy="100" r="8" fill="#fff"/>
  <circle cx="324" cy="84" r="14" fill="#bff8ff"/>
  <circle cx="352" cy="62" r="8" fill="#bff8ff"/>
</svg>
